<svg xmlns="http://www.w3.org/2000/svg" width="1024" height="1024" viewBox="0 0 1024 1024" role="img" aria-label="SPOS">
  <defs>
    <linearGradient id="bg" x1="144" y1="64" x2="880" y2="960" gradientUnits="userSpaceOnUse">
      <stop offset="0" stop-color="#0f2f35"/>
      <stop offset="0.5" stop-color="#07111f"/>
      <stop offset="1" stop-color="#0aa36d"/>
    </linearGradient>
    <linearGradient id="card" x1="256" y1="196" x2="768" y2="828" gradientUnits="userSpaceOnUse">
      <stop offset="0" stop-color="#ffffff"/>
      <stop offset="1" stop-color="#dff8ed"/>
    </linearGradient>
  </defs>
  <rect width="1024" height="1024" rx="232" fill="url(#bg)"/>
  <circle cx="790" cy="230" r="86" fill="#e9b949"/>
  <rect x="214" y="224" width="596" height="576" rx="144" fill="url(#card)" opacity="0.98"/>
  <path d="M340 412c0-54 44-98 98-98h148c54 0 98 44 98 98v31h-72v-31c0-14-12-26-26-26H438c-14 0-26 12-26 26v22c0 22 18 40 40 40h128c64 0 116 52 116 116v24c0 56-45 101-101 101H428c-56 0-101-45-101-101v-28h72v28c0 16 13 29 29 29h167c16 0 29-13 29-29v-24c0-24-20-44-44-44H452c-62 0-112-50-112-112v-22Z" fill="#07111f"/>
  <text x="512" y="890" text-anchor="middle" font-family="Arial, Helvetica, sans-serif" font-size="92" font-weight="800" letter-spacing="18" fill="#ffffff">SPOS</text>
</svg>
